<svg width="40" height="41" viewBox="0 0 40 41" fill="none" xmlns="http://www.w3.org/2000/svg">
<path d="M36.25 15.8125V17.3225C36.25 17.9996 36.0667 18.664 35.7196 19.2453C35.3725 19.8266 34.8744 20.3031 34.2783 20.6242L23.4817 26.4375M3.75 15.8125V17.3225C3.74997 17.9996 3.93325 18.664 4.28039 19.2453C4.62753 19.8266 5.12557 20.3031 5.72167 20.6242L16.5183 26.4375M16.5183 26.4375L18.2217 25.5208C18.7682 25.2265 19.3792 25.0724 20 25.0724C20.6208 25.0724 21.2318 25.2265 21.7783 25.5208L23.4833 26.4375L31.25 30.6208M16.5183 26.4375L8.75 30.6208M36.25 33.3125C36.25 34.3071 35.8549 35.2609 35.1516 35.9642C34.4484 36.6674 33.4946 37.0625 32.5 37.0625H7.5C6.50544 37.0625 5.55161 36.6674 4.84835 35.9642C4.14509 35.2609 3.75 34.3071 3.75 33.3125V15.5525C3.75027 14.8757 3.9337 14.2116 4.28082 13.6306C4.62794 13.0497 5.12582 12.5734 5.72167 12.2525L18.2217 5.51917C18.7682 5.22479 19.3792 5.07069 20 5.07069C20.6208 5.07069 21.2318 5.22479 21.7783 5.51917L34.2783 12.2525C34.8742 12.5734 35.3721 13.0497 35.7192 13.6306C36.0663 14.2116 36.2497 14.8757 36.25 15.5525V33.3125Z" stroke="black" stroke-width="2.5" stroke-linecap="round" stroke-linejoin="round"/>
</svg>
